<svg xmlns="http://www.w3.org/2000/svg" viewBox="0 0 64 64">
  <path fill="white" d="M27.8 4h8.4l1.8 7.1c2.1.6 4.1 1.4 5.9 2.5l6.3-3.8 5.9 5.9-3.8 6.3c1.1 1.9 2 3.8 2.5 5.9l7.2 1.9v8.4l-7.2 1.9c-.6 2.1-1.4 4.1-2.5 5.9l3.8 6.3-5.9 5.9-6.3-3.8c-1.8 1.1-3.8 1.9-5.9 2.5L36.2 64h-8.4L26 56.9c-2.1-.6-4.1-1.4-5.9-2.5l-6.3 3.8-5.9-5.9 3.8-6.3c-1.1-1.8-1.9-3.8-2.5-5.9L2 38.2v-8.4l7.2-1.9c.6-2.1 1.4-4.1 2.5-5.9l-3.8-6.3 5.9-5.9 6.3 3.8c1.8-1.1 3.8-1.9 5.9-2.5L27.8 4Zm4.2 17.8c-6.7 0-12.2 5.5-12.2 12.2S25.3 46.2 32 46.2 44.2 40.7 44.2 34 38.7 21.8 32 21.8Zm0 7.2a5 5 0 1 1 0 10 5 5 0 0 1 0-10Z"/>
</svg>
